<svg width="17" height="16" viewBox="0 0 17 16" fill="none" xmlns="http://www.w3.org/2000/svg">
<g id="8872392_eye_no_icon" clip-path="url(#clip0_1733_64)">
<path id="Vector" fill-rule="evenodd" clip-rule="evenodd" d="M13.7044 10.5939L12.7616 9.65103C13.1843 9.22365 13.573 8.77272 13.9205 8.32197C14.0076 8.20906 14.088 8.10134 14.1616 7.99989C14.088 7.89844 14.0076 7.79071 13.9205 7.6778C13.5174 7.15503 13.0591 6.63202 12.5563 6.14579C11.1607 4.79614 9.70906 3.99989 8.30568 3.99989C7.95748 3.99989 7.60631 4.04891 7.25376 4.14323L6.19911 3.08858C6.88741 2.81414 7.59039 2.66655 8.30568 2.66655C10.124 2.66655 11.8628 3.6203 13.4832 5.18732C14.036 5.72192 14.5361 6.29266 14.9764 6.86364C15.2421 7.20818 15.4307 7.47922 15.534 7.64069L15.7637 7.99989L15.534 8.35909C15.4307 8.52056 15.2421 8.79159 14.9764 9.13614C14.5956 9.62997 14.1701 10.1236 13.7044 10.5939ZM11.6427 12.2797C10.5685 12.9535 9.45296 13.3332 8.30568 13.3332C6.48731 13.3332 4.74856 12.3795 3.12815 10.8125C2.57534 10.2779 2.07522 9.70712 1.63495 9.13614C1.36928 8.79159 1.18066 8.52056 1.07739 8.35909L0.847656 7.99989L1.07739 7.64069C1.18066 7.47922 1.36928 7.20818 1.63495 6.86364C2.07522 6.29266 2.57534 5.72192 3.12815 5.18732C3.37523 4.94839 3.62505 4.72371 3.87749 4.51451L1.16761 1.80463L2.11042 0.861816L15.4438 14.1951L14.5009 15.138L11.6427 12.2797ZM4.82549 5.46251C4.56723 5.67078 4.3102 5.89904 4.05504 6.14579C3.55224 6.63202 3.09394 7.15503 2.69084 7.6778C2.60379 7.79071 2.52334 7.89844 2.44979 7.99989C2.52334 8.10134 2.60379 8.20906 2.69084 8.32197C3.09394 8.84474 3.55224 9.36775 4.05504 9.85399C5.45067 11.2036 6.9023 11.9999 8.30568 11.9999C9.08446 11.9999 9.87809 11.7547 10.6688 11.3058L9.66032 10.2973C9.26332 10.5319 8.80022 10.6666 8.30568 10.6666C6.83292 10.6666 5.63901 9.47265 5.63901 7.99989C5.63901 7.50535 5.77363 7.04225 6.00823 6.64524L4.82549 5.46251ZM7.01751 7.65452C6.98805 7.76468 6.97235 7.88045 6.97235 7.99989C6.97235 8.73627 7.5693 9.33322 8.30568 9.33322C8.42512 9.33322 8.54089 9.31752 8.65104 9.28806L7.01751 7.65452Z" fill="white"/>
</g>
<defs>
<clipPath id="clip0_1733_64">
<rect width="16" height="16" fill="white" transform="translate(0.306641)"/>
</clipPath>
</defs>
</svg>
